<svg width="25" height="688" viewBox="0 0 25 688" fill="none" xmlns="http://www.w3.org/2000/svg">
<path fill-rule="evenodd" clip-rule="evenodd" d="M13.1932 660.385V656.711C13.1932 656.415 13.1339 656.296 13.0154 656.178C12.8969 656.059 12.7191 656 12.4821 656C12.245 656 12.0672 656.059 11.9487 656.178C11.8302 656.296 11.7709 656.415 11.7709 656.711V660.385L11.1191 660.504C6.73391 661.156 3.29688 665.067 3.29688 669.807V678.519C3.29688 683.852 7.38576 688 12.4821 688C17.5784 688 21.6672 683.852 21.6672 678.519V669.807C21.6672 665.067 18.2302 661.156 13.7858 660.504L13.1932 660.385ZM4.65984 669.807C4.65984 665.304 8.09687 661.748 12.4821 661.748C16.8672 661.748 20.3043 665.304 20.3043 669.807V678.815C20.3043 683.319 16.8672 686.874 12.4821 686.874C8.09687 686.874 4.65984 683.319 4.65984 678.815V669.807Z" fill="#EFEFEF"/>
<path d="M12.4822 669.452C11.4155 669.452 10.5266 668.563 10.5266 667.497C10.5266 666.43 11.4155 665.541 12.4822 665.541C13.5488 665.541 14.4377 666.43 14.4377 667.497C14.4377 668.563 13.5488 669.452 12.4822 669.452ZM12.4822 666.43C11.8896 666.43 11.4155 666.904 11.4155 667.497C11.4155 668.089 11.8896 668.563 12.4822 668.563C13.0748 668.563 13.5488 668.089 13.5488 667.497C13.5488 666.904 13.0748 666.43 12.4822 666.43Z" fill="#FD2016"/>
<line x1="12.25" y1="618" x2="12.25" y2="130" stroke="#EFEFEF" stroke-width="1.5"/>
<path d="M13.496 89.376C13.8693 89.3547 14.1787 89.3173 14.424 89.264C14.6693 89.2 14.8667 89.104 15.016 88.976C15.1653 88.8373 15.272 88.6613 15.336 88.448C15.4 88.2347 15.432 87.9573 15.432 87.616C15.432 86.9973 15.3253 86.5653 15.112 86.32C14.8987 86.0747 14.52 85.952 13.976 85.952C13.752 85.952 13.56 85.984 13.4 86.048C13.24 86.1013 13.1067 86.192 13 86.32C12.8827 86.448 12.7813 86.6187 12.696 86.832C12.6107 87.0347 12.5307 87.2853 12.456 87.584L12.232 88.464C12.104 88.9547 11.9547 89.3867 11.784 89.76C11.6133 90.1227 11.3947 90.432 11.128 90.688C10.8613 90.9333 10.536 91.12 10.152 91.248C9.768 91.376 9.304 91.44 8.76 91.44C8.23733 91.44 7.768 91.376 7.352 91.248C6.936 91.1093 6.584 90.896 6.296 90.608C6.008 90.3093 5.78933 89.92 5.64 89.44C5.49067 88.96 5.416 88.3733 5.416 87.68C5.416 86.944 5.49067 86.336 5.64 85.856C5.78933 85.3653 6.01867 84.976 6.328 84.688C6.63733 84.4 7.032 84.1973 7.512 84.08C7.98133 83.952 8.54133 83.8773 9.192 83.856L9.192 85.984C8.81867 86.0053 8.51467 86.048 8.28 86.112C8.04533 86.1653 7.864 86.256 7.736 86.384C7.608 86.512 7.52267 86.6773 7.48 86.88C7.42667 87.0827 7.4 87.3387 7.4 87.648C7.4 88.192 7.50133 88.592 7.704 88.848C7.896 89.104 8.23733 89.232 8.728 89.232C8.984 89.232 9.19733 89.2053 9.368 89.152C9.528 89.088 9.66667 88.992 9.784 88.864C9.90133 88.7253 10.0027 88.5493 10.088 88.336C10.1627 88.1227 10.2373 87.8613 10.312 87.552L10.536 86.672C10.7813 85.6907 11.16 84.9547 11.672 84.464C12.184 83.9733 12.9307 83.728 13.912 83.728C14.4453 83.728 14.9147 83.7973 15.32 83.936C15.7253 84.0747 16.0667 84.2987 16.344 84.608C16.6213 84.9173 16.8347 85.3227 16.984 85.824C17.1227 86.3253 17.192 86.9333 17.192 87.648C17.192 88.352 17.128 88.944 17 89.424C16.8613 89.904 16.648 90.2987 16.36 90.608C16.0613 90.9067 15.6773 91.1307 15.208 91.28C14.7387 91.4187 14.168 91.504 13.496 91.536L13.496 89.376ZM17.128 77.5741C17.128 78.2248 17.0533 78.7688 16.904 79.2061C16.7547 79.6435 16.5147 79.9955 16.184 80.2621C15.8533 80.5181 15.4267 80.7048 14.904 80.8221C14.3707 80.9288 13.7253 80.9821 12.968 80.9821C12.2 80.9821 11.5493 80.9235 11.016 80.8061C10.4827 80.6781 10.056 80.4808 9.736 80.2141C9.40533 79.9475 9.17067 79.6008 9.032 79.1741C8.88267 78.7368 8.808 78.2035 8.808 77.5741C8.808 76.9875 8.87733 76.5021 9.016 76.1181C9.15467 75.7235 9.368 75.4088 9.656 75.1741C9.93333 74.9288 10.2853 74.7528 10.712 74.6461C11.128 74.5395 11.6187 74.4755 12.184 74.4541L12.184 76.4061C11.8747 76.4275 11.6187 76.4595 11.416 76.5021C11.2133 76.5448 11.0533 76.6141 10.936 76.7101C10.8187 76.7955 10.7387 76.9128 10.696 77.0621C10.6427 77.2008 10.616 77.3768 10.616 77.5901C10.616 77.8461 10.6427 78.0541 10.696 78.2141C10.7493 78.3741 10.8667 78.5021 11.048 78.5981C11.2187 78.6835 11.464 78.7421 11.784 78.7741C12.104 78.8061 12.5253 78.8221 13.048 78.8221C13.5813 78.8221 14.0133 78.8061 14.344 78.7741C14.664 78.7421 14.9147 78.6835 15.096 78.5981C15.2667 78.5021 15.3787 78.3741 15.432 78.2141C15.4853 78.0541 15.512 77.8461 15.512 77.5901C15.512 77.3661 15.4853 77.1848 15.432 77.0461C15.3787 76.8968 15.288 76.7795 15.16 76.6941C15.032 76.6088 14.8613 76.5448 14.648 76.5021C14.424 76.4595 14.152 76.4275 13.832 76.4061L13.832 74.4541C14.984 74.5075 15.8213 74.7741 16.344 75.2541C16.8667 75.7341 17.128 76.5075 17.128 77.5741ZM11.72 71.657C10.7387 71.657 10.0293 71.4437 9.592 71.017C9.15467 70.5797 8.936 69.865 8.936 68.873L8.936 67.529L10.68 67.529L10.68 68.585C10.68 68.9263 10.7547 69.1717 10.904 69.321C11.0533 69.4703 11.2987 69.545 11.64 69.545L17 69.545L17 71.657L11.72 71.657ZM17.128 61.7476C17.128 62.3983 17.0587 62.9476 16.92 63.3956C16.7813 63.833 16.552 64.1903 16.232 64.4676C15.9013 64.7343 15.4747 64.9263 14.952 65.0436C14.4187 65.161 13.7573 65.2196 12.968 65.2196C12.168 65.2196 11.5013 65.161 10.968 65.0436C10.4347 64.9156 10.008 64.7183 9.688 64.4516C9.368 64.1743 9.144 63.817 9.016 63.3796C8.87733 62.9316 8.808 62.3876 8.808 61.7476C8.808 61.1076 8.88266 60.569 9.032 60.1316C9.17066 59.6836 9.40533 59.3263 9.736 59.0596C10.056 58.7823 10.4827 58.585 11.016 58.4676C11.5387 58.3396 12.1893 58.2756 12.968 58.2756C13.7573 58.2756 14.4187 58.3343 14.952 58.4516C15.4747 58.569 15.9013 58.7663 16.232 59.0436C16.552 59.3103 16.7813 59.6676 16.92 60.1156C17.0587 60.553 17.128 61.097 17.128 61.7476ZM15.512 61.7476C15.512 61.4916 15.4853 61.2783 15.432 61.1076C15.368 60.937 15.2453 60.8036 15.064 60.7076C14.8827 60.601 14.6267 60.5316 14.296 60.4996C13.9547 60.457 13.512 60.4356 12.968 60.4356C12.456 60.4356 12.0507 60.457 11.752 60.4996C11.4427 60.5316 11.2027 60.601 11.032 60.7076C10.8613 60.8036 10.7493 60.937 10.696 61.1076C10.6427 61.2783 10.616 61.4916 10.616 61.7476C10.616 62.0036 10.6427 62.217 10.696 62.3876C10.7493 62.5583 10.8613 62.697 11.032 62.8036C11.2027 62.8996 11.4427 62.969 11.752 63.0116C12.0507 63.0543 12.456 63.0756 12.968 63.0756C13.5227 63.0756 13.9653 63.0543 14.296 63.0116C14.6267 62.969 14.8827 62.8996 15.064 62.8036C15.2453 62.697 15.368 62.5583 15.432 62.3876C15.4853 62.217 15.512 62.0036 15.512 61.7476ZM5.608 55.3621L5.608 53.2501L17 53.2501L17 55.3621L5.608 55.3621ZM5.608 50.0121L5.608 47.9001L17 47.9001L17 50.0121L5.608 50.0121ZM17.128 37.5322C17.128 38.0549 17.064 38.5029 16.936 38.8762C16.7973 39.2389 16.568 39.5376 16.248 39.7722C15.928 40.0069 15.5013 40.1829 14.968 40.3002C14.4347 40.4069 13.768 40.4602 12.968 40.4602C12.1787 40.4602 11.5173 40.3962 10.984 40.2682C10.4507 40.1402 10.024 39.9536 9.704 39.7082C9.384 39.4522 9.15466 39.1322 9.016 38.7482C8.87733 38.3642 8.808 37.9162 8.808 37.4042C8.808 37.0309 8.872 36.6949 9 36.3962C9.11733 36.0976 9.34666 35.8522 9.688 35.6602L5.608 35.6602L5.608 33.5482L17 33.5482L17 35.5642L15.96 35.5642C16.408 35.7562 16.7173 36.0229 16.888 36.3642C17.048 36.6949 17.128 37.0842 17.128 37.5322ZM15.512 36.9882C15.512 36.7429 15.4853 36.5349 15.432 36.3642C15.368 36.1936 15.2453 36.0602 15.064 35.9642C14.8827 35.8576 14.6267 35.7829 14.296 35.7402C13.9653 35.6869 13.5227 35.6602 12.968 35.6602C12.456 35.6602 12.0453 35.6869 11.736 35.7402C11.4267 35.7829 11.192 35.8576 11.032 35.9642C10.8613 36.0602 10.7493 36.1936 10.696 36.3642C10.6427 36.5349 10.616 36.7429 10.616 36.9882C10.616 37.2442 10.6427 37.4576 10.696 37.6282C10.7493 37.7989 10.8613 37.9322 11.032 38.0282C11.2027 38.1242 11.4427 38.1936 11.752 38.2362C12.0507 38.2789 12.456 38.3002 12.968 38.3002C13.512 38.3002 13.9493 38.2789 14.28 38.2362C14.6107 38.1936 14.8667 38.1242 15.048 38.0282C15.2293 37.9322 15.352 37.7989 15.416 37.6282C15.48 37.4576 15.512 37.2442 15.512 36.9882ZM17.128 27.1695C17.128 27.8202 17.0587 28.3695 16.92 28.8175C16.7813 29.2548 16.552 29.6122 16.232 29.8895C15.9013 30.1562 15.4747 30.3482 14.952 30.4655C14.4187 30.5828 13.7573 30.6415 12.968 30.6415C12.168 30.6415 11.5013 30.5828 10.968 30.4655C10.4347 30.3375 10.008 30.1402 9.688 29.8735C9.368 29.5962 9.144 29.2388 9.016 28.8015C8.87733 28.3535 8.808 27.8095 8.808 27.1695C8.808 26.5295 8.88266 25.9908 9.032 25.5535C9.17066 25.1055 9.40533 24.7482 9.736 24.4815C10.056 24.2042 10.4827 24.0068 11.016 23.8895C11.5387 23.7615 12.1893 23.6975 12.968 23.6975C13.7573 23.6975 14.4187 23.7562 14.952 23.8735C15.4747 23.9908 15.9013 24.1882 16.232 24.4655C16.552 24.7322 16.7813 25.0895 16.92 25.5375C17.0587 25.9748 17.128 26.5188 17.128 27.1695ZM15.512 27.1695C15.512 26.9135 15.4853 26.7002 15.432 26.5295C15.368 26.3588 15.2453 26.2255 15.064 26.1295C14.8827 26.0228 14.6267 25.9535 14.296 25.9215C13.9547 25.8788 13.512 25.8575 12.968 25.8575C12.456 25.8575 12.0507 25.8788 11.752 25.9215C11.4427 25.9535 11.2027 26.0228 11.032 26.1295C10.8613 26.2255 10.7493 26.3588 10.696 26.5295C10.6427 26.7002 10.616 26.9135 10.616 27.1695C10.616 27.4255 10.6427 27.6388 10.696 27.8095C10.7493 27.9802 10.8613 28.1188 11.032 28.2255C11.2027 28.3215 11.4427 28.3908 11.752 28.4335C12.0507 28.4762 12.456 28.4975 12.968 28.4975C13.5227 28.4975 13.9653 28.4762 14.296 28.4335C14.6267 28.3908 14.8827 28.3215 15.064 28.2255C15.2453 28.1188 15.368 27.9802 15.432 27.8095C15.4853 27.6388 15.512 27.4255 15.512 27.1695ZM8.936 21.6922L8.936 19.5002L14.184 18.1722L8.936 16.6682L8.936 15.0042L14.184 13.5162L8.936 12.1722L8.936 10.2682L17 12.6362L17 14.5882L12.52 16.0122L17 17.3402L17 19.3402L8.936 21.6922ZM8.936 7.809L8.936 5.793L9.88 5.793C9.16533 5.51567 8.808 4.87033 8.808 3.857C8.808 2.93967 9.05866 2.289 9.56 1.905C10.0613 1.521 10.7973 1.329 11.768 1.329L17 1.329L17 3.457L12.232 3.457C11.6133 3.457 11.1973 3.537 10.984 3.697C10.76 3.857 10.648 4.145 10.648 4.561C10.648 4.785 10.6747 4.97167 10.728 5.121C10.7707 5.25967 10.856 5.37167 10.984 5.457C11.1013 5.54233 11.2613 5.60633 11.464 5.649C11.6667 5.681 11.9227 5.697 12.232 5.697L17 5.697L17 7.809L8.936 7.809Z" fill="#EFEFEF"/>
</svg>
